<?xml version="1.0" encoding="UTF-8"?>
<svg id="Layer_1" data-name="Layer 1" xmlns="http://www.w3.org/2000/svg" xmlns:xlink="http://www.w3.org/1999/xlink" viewBox="0 0 133.42 165.19">
  <defs>
    <style>
      .cls-1 {
        fill: url(#linear-gradient-5);
      }

      .cls-2 {
        fill: url(#linear-gradient-6);
      }

      .cls-3 {
        fill: url(#linear-gradient-4);
      }

      .cls-4 {
        fill: url(#linear-gradient-3);
      }

      .cls-5 {
        fill: url(#linear-gradient-2);
      }

      .cls-6 {
        fill: url(#linear-gradient);
      }
    </style>
    <linearGradient id="linear-gradient" x1="35.63" y1="72.61" x2="92.8" y2="72.61" gradientUnits="userSpaceOnUse">
      <stop offset="0" stop-color="#c49044"/>
      <stop offset=".48" stop-color="#e6ca85"/>
      <stop offset="1" stop-color="#bb8233"/>
    </linearGradient>
    <linearGradient id="linear-gradient-2" x1="87.51" y1="47.18" x2="128.42" y2="47.18" xlink:href="#linear-gradient"/>
    <linearGradient id="linear-gradient-3" x1="0" y1="47.24" x2="40.96" y2="47.24" xlink:href="#linear-gradient"/>
    <linearGradient id="linear-gradient-4" x1="43.36" y1="19.99" x2="85.1" y2="19.99" xlink:href="#linear-gradient"/>
    <linearGradient id="linear-gradient-5" x1="8.18" y1="129.97" x2="98.58" y2="129.97" xlink:href="#linear-gradient"/>
    <linearGradient id="linear-gradient-6" x1="87.5" y1="142.23" x2="133.42" y2="142.23" xlink:href="#linear-gradient"/>
  </defs>
  <g>
    <circle class="cls-6" cx="64.21" cy="72.61" r="28.59"/>
    <path class="cls-5" d="M104.66,26.47c1.14-.2,1.99.49,2.64,1.34,1.24,1.63,4.86,9.53,6.01,10.09,2.14,1.05,10.03-2.19,12.86-2.06,1.69.08,2.71,1.6,2.03,3.25-.63,1.53-5.29,5.71-6.66,7.39-1.9,2.33-2.05,2.17-.75,4.85,1.18,2.44,4.35,6.46,5.05,8.67.3.94.06,2.48-.88,2.93-2,.96-7.78-2.53-9.95-3.42-2.69-1.09-3.21-1.97-5.48.32-1.74,1.75-5.24,6.72-7,7.74-1.64.95-3.57.03-3.64-1.91-.12-3.18,1.36-7.75,1.27-11.03-.06-2.03-1.66-2.37-3.18-3.14-1.65-.83-8.67-3.34-9.2-4.51-.56-1.24-.29-2.54.95-3.15,2.66-1.31,7.93-1.38,10.95-2.42,1.97-.68,1.96-1.73,2.27-3.55.38-2.21.38-9.24,1.4-10.6.24-.32.91-.72,1.3-.79Z"/>
    <g>
      <path class="cls-4" d="M3.04,62.65c-.17-.16-.66-1.26-.68-1.51-.12-1.52,4.31-7.8,5.23-9.71.8-1.66,1.39-2.2.17-3.95-1.79-2.57-5.78-5.48-7.34-8.08-1.01-1.7-.07-3.64,1.97-3.62,2.93.02,9.87,2.94,12.33,2.21.54-.16,1.21-1.06,1.56-1.53,1.66-2.28,3.6-7.64,5.39-9.34,1.42-1.34,2.93-.58,3.85.9.64,3.54.42,7.77,1.12,11.22.12.57.26.96.65,1.4,1.35,1.49,9.67,1.93,12.09,3,1.23.54,1.98,2,1.38,3.25-.9,1.88-11.38,4.61-12.18,6.33-.85,1.83.67,8.31.77,10.72s-.27,5.1-3.42,3.76c-.77-.33-4.47-5.14-5.48-6.17-1.9-1.94-2.67-3.73-5.49-2.72-2.67.95-8.33,4.47-10.77,4.26-.35-.03-.89-.17-1.14-.41Z"/>
      <path class="cls-3" d="M70.22,12.96c1.66,1.56,10.35.36,13.09.8,2.01.32,2.27,2.34,1.07,3.77-1.8,2.14-7.02,4.41-9.12,6.64-.63.66-.98,1.33-.86,2.26.39,3.04,3.03,7.6,3.56,10.88.26,1.7-1.29,3.06-2.92,2.57-2.54-.76-8.82-7.27-10.91-7.27-1.42,0-8.14,5.98-10.15,6.97-2.51,1.23-3.69-.44-3.31-2.96s3.71-9.27,3.29-11.31c-.09-.43-.32-.8-.66-1.08l-9.46-6.81c-.89-1.26-.56-3.35,1.1-3.66,2.9-.54,11.01.85,13.03-.68.42-.32.55-.84.76-1.3,1.36-2.95,1.9-7.41,3.24-10.13.94-1.9,3.22-2.31,4.3-.34,1.21,2.21,2.71,10.51,3.93,11.66Z"/>
    </g>
  </g>
  <g>
    <path class="cls-1" d="M9.98,155.29c-1.11-.19-1.83-.98-1.8-2.13.09-3.85,2.71-11.27,4.31-14.9,14.67-33.21,57.29-44.33,86.09-21.88-12.52,5.82-19.09,19.63-15.67,33.15.5,1.99,1.51,3.77,1.96,5.75H9.98Z"/>
    <path class="cls-2" d="M133.42,142.23c0,12.68-10.28,22.96-22.96,22.96s-22.96-10.28-22.96-22.96,10.28-22.96,22.96-22.96,22.96,10.28,22.96,22.96ZM120.42,132.74c-.71.16-2.95,2.2-3.68,2.84-3.6,3.11-6.96,6.57-10.5,9.75-.92.16-4.23-4.86-6.15-5.11-2.3-.3-3.72,1.48-2.96,3.67.45,1.32,6.85,7.73,8.16,7.96.62.11,1.27.08,1.85-.18l16.28-14.56c1.43-2.37-.14-5.03-3-4.37Z"/>
  </g>
</svg>