<?xml version="1.0" encoding="UTF-8"?>
<svg id="Layer_1" data-name="Layer 1" xmlns="http://www.w3.org/2000/svg" xmlns:xlink="http://www.w3.org/1999/xlink" viewBox="0 0 149.22 152.23">
  <defs>
    <style>
      .cls-1 {
        fill: url(#linear-gradient-8);
      }

      .cls-2 {
        fill: url(#linear-gradient-7);
      }

      .cls-3 {
        fill: url(#linear-gradient-5);
      }

      .cls-4 {
        fill: url(#linear-gradient-6);
      }

      .cls-5 {
        fill: url(#linear-gradient-9);
      }

      .cls-6 {
        fill: url(#linear-gradient-4);
      }

      .cls-7 {
        fill: url(#linear-gradient-3);
      }

      .cls-8 {
        fill: url(#linear-gradient-2);
      }

      .cls-9 {
        fill: url(#linear-gradient);
      }

      .cls-10 {
        fill: url(#linear-gradient-10);
      }

      .cls-11 {
        fill: url(#linear-gradient-11);
      }

      .cls-12 {
        fill: url(#linear-gradient-12);
      }
    </style>
    <linearGradient id="linear-gradient" x1="26.82" y1="11.14" x2="37.17" y2="11.14" gradientUnits="userSpaceOnUse">
      <stop offset="0" stop-color="#c49044"/>
      <stop offset=".48" stop-color="#e6ca85"/>
      <stop offset="1" stop-color="#bb8233"/>
    </linearGradient>
    <linearGradient id="linear-gradient-2" x1="65.96" y1="148.3" x2="86.93" y2="148.3" xlink:href="#linear-gradient"/>
    <linearGradient id="linear-gradient-3" x1="4.26" y1="22.88" x2="25.94" y2="22.88" gradientTransform="translate(24.97 -2.69) rotate(54.53)" xlink:href="#linear-gradient"/>
    <linearGradient id="linear-gradient-4" x1="0" y1="45.02" x2="22.3" y2="45.02" gradientTransform="translate(11.04 -1.36) rotate(13.78)" xlink:href="#linear-gradient"/>
    <linearGradient id="linear-gradient-5" x1="66.04" y1="136.35" x2="86.84" y2="136.35" xlink:href="#linear-gradient"/>
    <linearGradient id="linear-gradient-6" x1="121.64" y1="119.45" x2="140.94" y2="119.45" gradientTransform="translate(140.3 -57.82) rotate(50.61)" xlink:href="#linear-gradient"/>
    <linearGradient id="linear-gradient-7" x1="126.05" y1="99.81" x2="144.47" y2="99.81" xlink:href="#linear-gradient"/>
    <linearGradient id="linear-gradient-8" x1="110.3" y1="127.29" x2="115.65" y2="127.29" xlink:href="#linear-gradient"/>
    <linearGradient id="linear-gradient-9" x1="29.51" y1="72.64" x2="112.68" y2="72.64" xlink:href="#linear-gradient"/>
    <linearGradient id="linear-gradient-10" x1="70.2" y1="45.75" x2="149.22" y2="45.75" xlink:href="#linear-gradient"/>
    <linearGradient id="linear-gradient-11" x1="2.77" y1="94.45" x2="54.7" y2="94.45" xlink:href="#linear-gradient"/>
    <linearGradient id="linear-gradient-12" x1="114.17" y1="82.37" x2="120.29" y2="82.37" xlink:href="#linear-gradient"/>
  </defs>
  <polygon class="cls-9" points="31.88 0 37.17 20.66 32.18 22.28 26.82 1.35 31.29 0 31.88 0"/>
  <path class="cls-8" d="M86.84,144.37c.46,4.02-.73,7.41-5.19,7.74-2.25.17-10.72.29-12.41-.39-3.1-1.24-3.49-4.4-3.2-7.35h20.79Z"/>
  <rect class="cls-7" x="12.41" y="11.48" width="5.37" height="22.8" transform="translate(-12.3 21.9) rotate(-54.53)"/>
  <rect class="cls-6" x=".34" y="42.3" width="21.63" height="5.45" transform="translate(-10.4 3.95) rotate(-13.78)"/>
  <rect class="cls-3" x="66.04" y="133.67" width="20.79" height="5.35"/>
  <rect class="cls-4" x="128.58" y="109.19" width="5.43" height="20.52" transform="translate(-44.34 145.12) rotate(-50.61)"/>
  <rect class="cls-2" x="126.05" y="97.14" width="18.42" height="5.35"/>
  <rect class="cls-1" x="110.3" y="118.23" width="5.35" height="18.12"/>
  <g>
    <path class="cls-5" d="M77.92,13.67c-.13,1.07-1.43,1.13-1.85,2.15-.68,1.66.2,2.59,1.02,3.88,1.12,1.77,5.73,6.86,5.88,8.4.14,1.43-1.14,2.69-2.52,2.81-2.96.25-7.6-1.44-10.71-1.51-2.05-.05-2.64,1.51-3.02,3.21-1.06,4.78-1.08,10.22-2.15,15.05.26.95.64,1.87,1.6,2.27,2.99,1.26,9,.63,11.67,1.99,1.74.88,1.65,3.06.39,4.38-2.06,2.17-6.57,4.18-8.49,6.36-.77.88-.99,1.8-.5,2.91l9.58,13c1.27,1.5,2.41,1.2,3.95.39,2.23-1.18,7.84-6.67,9.83-6.48,1.82.18,2.32,1.89,2.27,3.43-.1,3-1.59,7.3-1.48,10.07.09,2.04,1.81,2.46,3.44,2.8,3.91.82,10.35,1.78,14.3,2.05.57.04,1.15-.4,1.55-.07-1.88,1.88-3.62,3.91-5.64,5.65-4.58,3.95-9.93,5.87-11.67,12.39-2.06,7.75,3.45,21.5-8.68,22.51-5.43.45-15.05.44-20.49,0-10.42-.85-7.41-10.46-7.86-17.68-.76-12.03-8.24-12.68-15.36-19.85-13.4-13.51-17.22-34.51-9.57-51.99,7.67-17.52,25.36-28.55,44.51-28.11ZM79.11,110.21c-.23-7.67-4.19-14.84-10.84-18.72-2.55-1.49-5.39-2.37-7.97-3.91-19.97-11.95-20.08-40.69-.82-53.31.16-.51-2.11-4.14-2.54-4.22-22.39,13.47-22.51,46.43-.97,60.98,5.5,3.72,11.82,4.41,15.47,10.67,1.45,2.48,2.48,5.63,2.33,8.52h5.35ZM73.77,115.55v7.72h5.35v-7.72h-5.35Z"/>
    <path class="cls-10" d="M120.39,7.73c-.42,5.15-3.1,11.29,2.11,14.97,6.22,4.4,10.81-1.84,15.71-4.58l5.82,8.02c.22.63-5.43,4.31-6.24,5.05-2.79,2.56-3.71,5.94-2.09,9.5,2.32,5.07,8.87,4.59,13.52,5.35l-1.49,10.4c-5.25-.54-10.96-3.06-14.84,1.94-4.5,5.79,1.15,10.92,4.39,15.44l-8.11,6.37c-3.75-3.91-5.5-10.03-12.16-9.17s-6.95,8.87-7.6,14.23l-10.39-1.5c.39-5.26,3.08-10.93-1.95-14.83-5.81-4.51-10.92,1.06-15.44,4.44l-6.37-8.16c3.72-3.57,9.61-5.38,9.2-11.58-.5-7.53-8.56-7.59-14.26-8.18l1.5-10.39c5.22.42,11.23,3.05,14.96-2.11,4.27-5.92-1.31-10.71-4.53-15.28l8.11-6.37c3.61,3.74,5.31,9.62,11.58,9.2,7.49-.5,7.52-8.62,8.18-14.26l10.39,1.5ZM125.35,45.73c0-8.64-7-15.64-15.64-15.64s-15.64,7-15.64,15.64,7,15.64,15.64,15.64,15.64-7,15.64-15.64Z"/>
    <path class="cls-11" d="M29.2,76.63c-13.76,1.73-18.38,19.89-7.1,28.05,7.87,5.69,18.66,2.82,23.29-5.46,2.81,2.77,6.71,4.04,8.58,7.75.47.93,1.06,1.85.5,2.8-.21.36-4.62,4.78-4.96,4.84-3.83-1.56-6.17-5.89-10.81-3.98-3.78,1.56-2.9,7-4.43,10.12l-5.91.1c-1.35-4.43-.74-11.28-7.32-10.66-2.51.24-5.08,3.13-7.29,4.32h-.57s-4.43-4.51-4.43-4.51c1.63-3.33,4.96-5.34,4.4-9.44-.63-4.57-6.81-4.57-10.37-5.23v-6.52c3.16-.74,8.85-.7,10.11-4.31,1.53-4.38-2.36-6.93-4.1-10.41.02-.31,4.11-4.33,4.39-4.46.33-.15.56-.23.87,0,3.8,2.95,8.89,7.21,12.41,1.41l.97-3.04,1.78,8.61Z"/>
    <path class="cls-12" d="M114.17,88.52c.82-2.86.49-8.43,1.72-10.91.77-1.55,3.61-1.99,4.39-.37.25.53-2.29,5.52-2.79,6.43-.91,1.65-2.05,3.45-3.32,4.85Z"/>
  </g>
</svg>