<?xml version="1.0" encoding="UTF-8"?>
<svg id="Layer_1" data-name="Layer 1" xmlns="http://www.w3.org/2000/svg" xmlns:xlink="http://www.w3.org/1999/xlink" viewBox="0 0 191.83 176.15">
  <defs>
    <style>
      .cls-1 {
        fill: url(#linear-gradient-5);
      }

      .cls-2 {
        fill: url(#linear-gradient-6);
      }

      .cls-3 {
        fill: url(#linear-gradient-4);
      }

      .cls-4 {
        fill: url(#linear-gradient-3);
      }

      .cls-5 {
        fill: url(#linear-gradient-2);
      }

      .cls-6 {
        fill: url(#linear-gradient);
      }
    </style>
    <linearGradient id="linear-gradient" x1="-1.51" y1="66.53" x2="171.37" y2="81.66" gradientUnits="userSpaceOnUse">
      <stop offset="0" stop-color="#c49044"/>
      <stop offset=".48" stop-color="#e6ca85"/>
      <stop offset="1" stop-color="#bb8233"/>
    </linearGradient>
    <linearGradient id="linear-gradient-2" x1="74.34" y1="40.37" x2="192.45" y2="50.7" xlink:href="#linear-gradient"/>
    <linearGradient id="linear-gradient-3" x1="40.3" y1="117.39" x2="74.97" y2="120.42" xlink:href="#linear-gradient"/>
    <linearGradient id="linear-gradient-4" x1="80.26" y1="156.57" x2="114.8" y2="159.59" xlink:href="#linear-gradient"/>
    <linearGradient id="linear-gradient-5" x1="20.57" y1="97.81" x2="55.08" y2="100.83" xlink:href="#linear-gradient"/>
    <linearGradient id="linear-gradient-6" x1="60.35" y1="136.95" x2="94.84" y2="139.97" xlink:href="#linear-gradient"/>
  </defs>
  <path class="cls-6" d="M122.82,148.8c-1.9-8.93-10.39-15.91-19.44-16.73-.69-9.93-10.02-19.17-19.98-19.44-.51-10.27-9.72-18.67-19.74-19.91-.54-11.88-17.29-25.22-28.04-16.97l-16.54,16.9c-1.07.28-3.97-2.98-4.8-3.89C-3.48,69.33-5.24,38.29,12.2,18.02c20.9-24.28,57.96-23.53,79.53-.69l-24.59,25.03c-3.63,7.46-.1,13.49,6.88,16.81,17.87,8.5,30.69-6.73,45.71-13.71l47.79,47.74c7.28,9.95-4.76,21.67-14.58,14.11l-42.42-42.45c-5.03-3.6-9.31,2.38-5.11,6.5l43,43.26c5.22,9.71-6.03,19.54-14.95,13.09l-43.14-43.12c-4.48-2.65-8.59,1.62-5.54,6.01l43.05,43.21c3.75,5.3,1.57,13.78-5.02,15Z"/>
  <path class="cls-5" d="M176.15,92.68l-2.08-4.18-47.08-47.07,3.71-2.77c2.32-3.15.36-6.79-3.48-6.77l-34.41,19.89c-2.56,1.16-5.87,2.1-8.72,1.94-3.18-.18-11.57-2.7-10.26-6.97l29.48-29.9C127.53-5.02,164.66-.8,183.02,26.22c13.86,20.41,11.21,49.57-6.86,66.46Z"/>
  <path class="cls-4" d="M61.93,101.13c6.01-1.38,15.08,7.44,13.47,13.47-.2.76-1.2,1.8-1.73,2.44-5.49,6.67-13.55,12.59-19.23,19.26-6.19,2.92-16.32-7.26-14.54-13.15.1-.33,3.87-4.49,4.53-5.21,3.89-4.27,11.2-12.15,15.54-15.53.66-.51,1.04-1.07,1.96-1.28Z"/>
  <path class="cls-3" d="M102.3,140.07c5.4-.88,14.66,8.05,12.89,13.86l-20.68,21.52c-5.52,3.49-16.67-6.83-14.61-13.22l19.49-20.39c.72-.65,1.98-1.61,2.91-1.76Z"/>
  <path class="cls-1" d="M41.52,81.65c6.21-1.84,15.74,7.52,13.95,13.49-.14.46-5.49,6.1-6.38,7.06-3.22,3.44-10.74,11.77-14.16,14.13-6.04,4.19-18.74-7.98-13.92-14.39l20.51-20.3Z"/>
  <path class="cls-2" d="M81.87,120.61c5.92-1.33,14.99,7.61,13.37,13.84l-20.88,21.32c-5.4,3.35-16.33-6.87-14.42-13.02,3.46-3.77,6.89-7.69,10.45-11.35,1.74-1.79,9.97-10.45,11.47-10.79Z"/>
</svg>